# xmcd
#
# Track frame offsets: 
#        150
#        13285
#        25992
#        35702
#        47962
#        60202
#        71739
#        84186
#        94722
#        107713
#        120042
#        134712
#        144611
#        155494
#        167602
#        180644
#        193057
#        208266
#        221857
#        230975
#        243527
#        256552
#        267933
#        280607
#
# Disc length: 3906 seconds
#
# Revision: 1
# Processed by: cddbd v1.5.2PL0 Copyright (c) Steve Scherf et al.
# Submitted via: ExactAudioCopyFreeDBPlugin 1.0
#
DISCID=620f4018
DTITLE=Various Artist - Hall of FAME, Volume 3:  More Rare and Unissu
DTITLE=ed Gems from the Fame Vaults
DYEAR=2014
DGENRE=Soul
TTITLE0=Billy and Clyde - A World of My Own
TTITLE1=Clarence Carter - Hey Man
TTITLE2=Dan Greer - Don't Let a Good Thing Go to Waste
TTITLE3=Ben and Spence - L-O-V-E Love
TTITLE4=Ralph ''Soul'' Jackson - You Left the Water Running
TTITLE5=Dan Brantley - The Door to My Heart
TTITLE6=Clarence Carter - I Done Run Out
TTITLE7=Billy Young - You're Too Much
TTITLE8=Roy Lee Johnson - Aint Nothin' Good About Bein' Lonely
TTITLE9=Big Ben Atkins - Don't Raise Your Voice at Me
TTITLE10=(unknown male vocalist) - I'm in Love (That's All I Can Say)
TTITLE11=Ben and Spence - You're the One for Me
TTITLE12=Billy Young - Why Don't You Care
TTITLE13=Roy Lee Johnson - What Our Love's Gonna Turn Out to Be
TTITLE14=Herman Moore - Come on Home
TTITLE15=Otis Clay - She's About a Mover
TTITLE16=George Jackson - I Don't Want to Know
TTITLE17=Ben and Spence - A Stone Loser
TTITLE18=Clarence Carter - I Feel a Burning
TTITLE19=Herman Moore - Love Light
TTITLE20=Roy Lee Johnson - Love is Calling on Me
TTITLE21=Prince Phillip - Hail! Hail! The Gang's All Here
TTITLE22=(unknown male vocalist) - Your Sister's Keeper
TTITLE23=Otis Clay - You Don't Miss Your Water
EXTD=
EXTT0=
EXTT1=
EXTT2=
EXTT3=
EXTT4=
EXTT5=
EXTT6=
EXTT7=
EXTT8=
EXTT9=
EXTT10=
EXTT11=
EXTT12=
EXTT13=
EXTT14=
EXTT15=
EXTT16=
EXTT17=
EXTT18=
EXTT19=
EXTT20=
EXTT21=
EXTT22=
EXTT23=
PLAYORDER=
